<?xml version="1.0" encoding="UTF-8" standalone="no"?>
<svg width="100px" height="100px" viewBox="0 0 100 100" version="1.1" xmlns="http://www.w3.org/2000/svg" xmlns:xlink="http://www.w3.org/1999/xlink" xmlns:sketch="http://www.bohemiancoding.com/sketch/ns">
    <!-- Generator: Sketch 3.3.2 (12043) - http://www.bohemiancoding.com/sketch -->
    <title>Slice 1</title>
    <desc>Created with Sketch.</desc>
    <defs></defs>
    <g id="Page-1" stroke="none" stroke-width="1" fill="none" fill-rule="evenodd" sketch:type="MSPage">
        <g id="logo" sketch:type="MSLayerGroup" fill="#000000">
            <g id="Page-1" sketch:type="MSShapeGroup">
                <g id="logo">
                    <path d="M49.8366013,0 C22.3124183,0 0,22.3124183 0,49.8366013 C0,77.3607843 22.3124183,99.6732026 49.8366013,99.6732026 C77.3607843,99.6732026 99.6732026,77.3607843 99.6732026,49.8366013 C99.6732026,22.3124183 77.3607843,0 49.8366013,0 L49.8366013,0 L49.8366013,0 Z M72.8228758,52.1176471 C70.8686275,54.5803922 68.0803922,56.3202614 64.4575163,57.3405229 C64.7405229,58.472549 65.0797386,59.6320261 65.4771242,60.8222222 L66.6660131,64.2183007 C67.7405229,67.1052288 68.7039216,69.0581699 69.5529412,70.0784314 C70.4026144,71.096732 71.3921569,71.775817 72.5254902,72.1156863 C71.9013072,74.4372549 70.4575163,76.2202614 68.1947712,77.4660131 C66.3816993,78.4843137 64.2313725,78.9941176 61.7405229,78.9941176 C54.4372549,78.9941176 50.3039216,73.3620915 49.3424837,62.0954248 C49.172549,60.5111111 49.0875817,58.9261438 49.0875817,57.3405229 C51.9176471,56.5470588 54.3235294,54.8222222 56.3052288,52.1601307 C58.2869281,49.5 59.2777778,46.6124183 59.2777778,43.4986928 C59.2777778,40.3862745 58.1738562,38.8281046 55.9660131,38.8281046 C54.3803922,38.8281046 52.9647059,39.7058824 51.7202614,41.4601307 C50.4738562,43.2150327 49.5679739,45.5941176 49.0026144,48.5928105 L43.3986928,77.2960784 L26.2444444,78.9941176 L38.1333333,17.8529412 L55.2019608,16.1542484 L53.2490196,26.2607843 C52.3993464,31.0150327 51.4084967,34.6117647 50.2764706,37.0437908 C53.3339869,33.8745098 58.0888889,32.2895425 64.5431373,32.2895425 C68.1091503,32.2895425 70.8686275,33.2379085 72.8228758,35.1339869 C74.7751634,37.0313725 75.751634,39.7196078 75.751634,43.2013072 C75.751634,46.6830065 74.7751634,49.654902 72.8228758,52.1176471 L72.8228758,52.1176471 L72.8228758,52.1176471 Z" id="Imported-Layers"></path>
                </g>
            </g>
        </g>
    </g>
</svg>